# xmcd
#
# Track frame offsets:
#	150
#	27627
#	51685
#	82439
#	105344
#	129950
#	153467
#	181446
#	204268
#	223386
#
# Disc length: 3238 seconds
# Revision: 0
# Processed by: cddbd v1.5.2PL0 Copyright (c) Steve Scherf et al.
# Submitted via: dBpowerAMP V12.0
#
DISCID=970ca40a
DTITLE=Various Artist - Duong Xua Le Bong
DYEAR=2010
DGENRE=Acoustic
TTITLE0=Tuan Vu - Ru Nua Vang Trang
TTITLE1=Viet Thanh - Mua Roi Ben Doi
TTITLE2=Tuan Vu - Ai Ra Xu Hue
TTITLE3=Viet Thanh - Duong Xua Le Bong
TTITLE4=Tuan Vu - Ai Len Xu Hoa Dao
TTITLE5=Viet Thanh - Uoc Muon
TTITLE6=Tuan Vu - Mua Dem Tinh Nho
TTITLE7=Viet Thanh - Nho Nhung
TTITLE8=Tuan Vu - Ve Voi Noi Buon
TTITLE9=Viet Thanh - Ban Tay Tram Nam
EXTD=
EXTT0=
EXTT1=
EXTT2=
EXTT3=
EXTT4=
EXTT5=
EXTT6=
EXTT7=
EXTT8=
EXTT9=
PLAYORDER=
